<svg xmlns="http://www.w3.org/2000/svg" width="2560" height="1440" viewBox="0 0 2560 1440"><g transform="scale(1)"><g transform="translate(96,240)"><rect class="panel" x="0" y="0" width="520" height="1056" rx="26" fill="#0c1216" fill-opacity="0.72"/><text x="36" y="50" font-size="19" fill="#8b979e" font-family="SF Pro Text, Helvetica Neue, sans-serif" letter-spacing="0.12em">trackmyusage</text><text x="484" y="50" font-size="19" fill="#8b979e" font-family="SF Pro Text, Helvetica Neue, sans-serif" text-anchor="end">20:33</text><g class="row ok"><text x="36" y="100" font-size="28" fill="#eaf0f2" font-family="SF Pro Text, Helvetica Neue, sans-serif" font-weight="600">Claude</text><text x="484" y="106" font-size="42" fill="#4e8f78" font-family="SF Pro Text, Helvetica Neue, sans-serif" font-weight="700" text-anchor="end">62%</text><rect class="track" x="36" y="124" width="448" height="10" rx="5" fill="#ffffff" fill-opacity="0.13"/><rect class="fill" x="36" y="124" width="277.76" height="10" rx="5" fill="#4e8f78"/><text x="36" y="160" font-size="18" fill="#8b979e" font-family="SF Pro Text, Helvetica Neue, sans-serif">5-hour</text></g><g class="row warn"><text x="36" y="208" font-size="28" fill="#eaf0f2" font-family="SF Pro Text, Helvetica Neue, sans-serif" font-weight="600">Claude Two</text><text x="484" y="214" font-size="42" fill="#e0a24a" font-family="SF Pro Text, Helvetica Neue, sans-serif" font-weight="700" text-anchor="end">96%</text><rect class="track" x="36" y="232" width="448" height="10" rx="5" fill="#ffffff" fill-opacity="0.13"/><rect class="fill" x="36" y="232" width="430.08" height="10" rx="5" fill="#e0a24a"/><text x="36" y="268" font-size="18" fill="#8b979e" font-family="SF Pro Text, Helvetica Neue, sans-serif">5-hour</text></g><rect class="rule" x="36" y="304" width="448" height="1" fill="#ffffff" fill-opacity="0.12"/><g class="row warn"><text x="36" y="334" font-size="20" fill="#eaf0f2" font-family="SF Pro Text, Helvetica Neue, sans-serif">elevenlabs</text><rect class="track" x="246" y="328" width="134" height="7" rx="3.50" fill="#ffffff" fill-opacity="0.13"/><rect class="fill" x="246" y="328" width="117.92" height="7" rx="3.50" fill="#e0a24a"/><text x="484" y="334" font-size="19" fill="#eaf0f2" font-family="SF Pro Text, Helvetica Neue, sans-serif" text-anchor="end">88%</text></g><g class="row ok"><text x="36" y="374" font-size="20" fill="#eaf0f2" font-family="SF Pro Text, Helvetica Neue, sans-serif">firecrawl</text><rect class="track" x="246" y="368" width="134" height="7" rx="3.50" fill="#ffffff" fill-opacity="0.13"/><rect class="fill" x="246" y="368" width="89.78" height="7" rx="3.50" fill="#4e8f78"/><text x="484" y="374" font-size="19" fill="#eaf0f2" font-family="SF Pro Text, Helvetica Neue, sans-serif" text-anchor="end">67%</text></g><g class="row warn"><text x="36" y="414" font-size="20" fill="#eaf0f2" font-family="SF Pro Text, Helvetica Neue, sans-serif">github</text><g class="spark"><rect class="spark-bar" x="164" y="399.47" width="4" height="16.53" rx="1" fill="#ffffff" fill-opacity="0.28"/><rect class="spark-bar" x="170" y="399.29" width="4" height="16.71" rx="1" fill="#ffffff" fill-opacity="0.28"/><rect class="spark-bar" x="176" y="399.10" width="4" height="16.90" rx="1" fill="#ffffff" fill-opacity="0.28"/><rect class="spark-bar" x="182" y="399.10" width="4" height="16.90" rx="1" fill="#ffffff" fill-opacity="0.28"/><rect class="spark-bar" x="188" y="398.92" width="4" height="17.08" rx="1" fill="#ffffff" fill-opacity="0.28"/><rect class="spark-bar" x="194" y="398.73" width="4" height="17.27" rx="1" fill="#ffffff" fill-opacity="0.28"/><rect class="spark-bar" x="200" y="398.55" width="4" height="17.45" rx="1" fill="#ffffff" fill-opacity="0.28"/><rect class="spark-bar" x="206" y="398.37" width="4" height="17.63" rx="1" fill="#ffffff" fill-opacity="0.28"/><rect class="spark-bar" x="212" y="398.18" width="4" height="17.82" rx="1" fill="#ffffff" fill-opacity="0.28"/><rect class="spark-bar" x="218" y="398.18" width="4" height="17.82" rx="1" fill="#ffffff" fill-opacity="0.28"/><rect class="spark-bar" x="224" y="398" width="4" height="18" rx="1" fill="#ffffff" fill-opacity="0.28"/><rect class="spark-bar" x="230" y="398" width="4" height="18" rx="1" fill="#ffffff" fill-opacity="0.28"/></g><rect class="track" x="246" y="408" width="134" height="7" rx="3.50" fill="#ffffff" fill-opacity="0.13"/><rect class="fill" x="246" y="408" width="131.32" height="7" rx="3.50" fill="#e0a24a"/><text x="484" y="414" font-size="19" fill="#eaf0f2" font-family="SF Pro Text, Helvetica Neue, sans-serif" text-anchor="end">98%</text></g><g class="row ok"><text x="36" y="454" font-size="20" fill="#eaf0f2" font-family="SF Pro Text, Helvetica Neue, sans-serif">higgsfield</text><rect class="track" x="246" y="448" width="134" height="7" rx="3.50" fill="#ffffff" fill-opacity="0.13"/><rect class="fill" x="246" y="448" width="4.02" height="7" rx="3.50" fill="#4e8f78"/><text x="484" y="454" font-size="19" fill="#eaf0f2" font-family="SF Pro Text, Helvetica Neue, sans-serif" text-anchor="end">3%</text></g><g class="row ok"><text x="36" y="494" font-size="20" fill="#eaf0f2" font-family="SF Pro Text, Helvetica Neue, sans-serif">hostinger</text><rect class="track" x="246" y="488" width="134" height="7" rx="3.50" fill="#ffffff" fill-opacity="0.13"/><rect class="fill" x="246" y="488" width="53.60" height="7" rx="3.50" fill="#4e8f78"/><text x="484" y="494" font-size="19" fill="#eaf0f2" font-family="SF Pro Text, Helvetica Neue, sans-serif" text-anchor="end">40%</text></g><g class="row ok"><text x="36" y="534" font-size="20" fill="#eaf0f2" font-family="SF Pro Text, Helvetica Neue, sans-serif">inngest</text><rect class="track" x="246" y="528" width="134" height="7" rx="3.50" fill="#ffffff" fill-opacity="0.13"/><rect class="fill" x="246" y="528" width="10.72" height="7" rx="3.50" fill="#4e8f78"/><text x="484" y="534" font-size="19" fill="#eaf0f2" font-family="SF Pro Text, Helvetica Neue, sans-serif" text-anchor="end">8%</text></g><g class="row ok"><text x="36" y="574" font-size="20" fill="#eaf0f2" font-family="SF Pro Text, Helvetica Neue, sans-serif">modal</text><rect class="track" x="246" y="568" width="134" height="7" rx="3.50" fill="#ffffff" fill-opacity="0.13"/><rect class="fill" x="246" y="568" width="73.70" height="7" rx="3.50" fill="#4e8f78"/><text x="484" y="574" font-size="19" fill="#eaf0f2" font-family="SF Pro Text, Helvetica Neue, sans-serif" text-anchor="end">55%</text></g><g class="row ok"><text x="36" y="614" font-size="20" fill="#eaf0f2" font-family="SF Pro Text, Helvetica Neue, sans-serif">mux</text><rect class="track" x="246" y="608" width="134" height="7" rx="3.50" fill="#ffffff" fill-opacity="0.13"/><rect class="fill" x="246" y="608" width="38.86" height="7" rx="3.50" fill="#4e8f78"/><text x="484" y="614" font-size="19" fill="#eaf0f2" font-family="SF Pro Text, Helvetica Neue, sans-serif" text-anchor="end">29%</text></g><g class="row over"><text x="36" y="654" font-size="20" fill="#eaf0f2" font-family="SF Pro Text, Helvetica Neue, sans-serif">openai</text><rect class="track" x="246" y="648" width="134" height="7" rx="3.50" fill="#ffffff" fill-opacity="0.13"/><rect class="fill" x="246" y="648" width="134" height="7" rx="3.50" fill="#e2564a"/><text x="484" y="654" font-size="19" fill="#eaf0f2" font-family="SF Pro Text, Helvetica Neue, sans-serif" text-anchor="end">104%</text></g><g class="row ok"><text x="36" y="694" font-size="20" fill="#eaf0f2" font-family="SF Pro Text, Helvetica Neue, sans-serif">openart</text><rect class="track" x="246" y="688" width="134" height="7" rx="3.50" fill="#ffffff" fill-opacity="0.13"/><rect class="fill" x="246" y="688" width="22.78" height="7" rx="3.50" fill="#4e8f78"/><text x="484" y="694" font-size="19" fill="#eaf0f2" font-family="SF Pro Text, Helvetica Neue, sans-serif" text-anchor="end">17%</text></g><g class="row ok"><text x="36" y="734" font-size="20" fill="#eaf0f2" font-family="SF Pro Text, Helvetica Neue, sans-serif">posthog</text><rect class="track" x="246" y="728" width="134" height="7" rx="3.50" fill="#ffffff" fill-opacity="0.13"/><rect class="fill" x="246" y="728" width="29.48" height="7" rx="3.50" fill="#4e8f78"/><text x="484" y="734" font-size="19" fill="#eaf0f2" font-family="SF Pro Text, Helvetica Neue, sans-serif" text-anchor="end">22%</text></g><g class="row ok"><text x="36" y="774" font-size="20" fill="#eaf0f2" font-family="SF Pro Text, Helvetica Neue, sans-serif">resend</text><rect class="track" x="246" y="768" width="134" height="7" rx="3.50" fill="#ffffff" fill-opacity="0.13"/><rect class="fill" x="246" y="768" width="14.74" height="7" rx="3.50" fill="#4e8f78"/><text x="484" y="774" font-size="19" fill="#eaf0f2" font-family="SF Pro Text, Helvetica Neue, sans-serif" text-anchor="end">11%</text></g><g class="row nodata"><text x="36" y="814" font-size="20" fill="#5b686f" font-family="SF Pro Text, Helvetica Neue, sans-serif">sentry</text><text x="484" y="814" font-size="19" fill="#5b686f" font-family="SF Pro Text, Helvetica Neue, sans-serif" text-anchor="end">no data</text></g><g class="row uncapped"><text x="36" y="854" font-size="20" fill="#eaf0f2" font-family="SF Pro Text, Helvetica Neue, sans-serif">stripe</text><text x="484" y="854" font-size="19" fill="#eaf0f2" font-family="SF Pro Text, Helvetica Neue, sans-serif" text-anchor="end">$98,000</text></g><g class="row ok"><text x="36" y="894" font-size="20" fill="#eaf0f2" font-family="SF Pro Text, Helvetica Neue, sans-serif">supabase</text><rect class="track" x="246" y="888" width="134" height="7" rx="3.50" fill="#ffffff" fill-opacity="0.13"/><rect class="fill" x="246" y="888" width="45.56" height="7" rx="3.50" fill="#4e8f78"/><text x="484" y="894" font-size="19" fill="#eaf0f2" font-family="SF Pro Text, Helvetica Neue, sans-serif" text-anchor="end">34%</text></g><g class="row ok"><text x="36" y="934" font-size="20" fill="#eaf0f2" font-family="SF Pro Text, Helvetica Neue, sans-serif">twilio</text><g class="spark"><rect class="spark-bar" x="164" y="920" width="4" height="16" rx="1" fill="#ffffff" fill-opacity="0.28"/><rect class="spark-bar" x="170" y="920.80" width="4" height="15.20" rx="1" fill="#ffffff" fill-opacity="0.28"/><rect class="spark-bar" x="176" y="919.60" width="4" height="16.40" rx="1" fill="#ffffff" fill-opacity="0.28"/><rect class="spark-bar" x="182" y="920.40" width="4" height="15.60" rx="1" fill="#ffffff" fill-opacity="0.28"/><rect class="spark-bar" x="188" y="919.20" width="4" height="16.80" rx="1" fill="#ffffff" fill-opacity="0.28"/><rect class="spark-bar" x="194" y="920" width="4" height="16" rx="1" fill="#ffffff" fill-opacity="0.28"/><rect class="spark-bar" x="200" y="918.80" width="4" height="17.20" rx="1" fill="#ffffff" fill-opacity="0.28"/><rect class="spark-bar" x="206" y="919.60" width="4" height="16.40" rx="1" fill="#ffffff" fill-opacity="0.28"/><rect class="spark-bar" x="212" y="918.40" width="4" height="17.60" rx="1" fill="#ffffff" fill-opacity="0.28"/><rect class="spark-bar" x="218" y="919.20" width="4" height="16.80" rx="1" fill="#ffffff" fill-opacity="0.28"/><rect class="spark-bar" x="224" y="918" width="4" height="18" rx="1" fill="#ffffff" fill-opacity="0.28"/><rect class="spark-bar" x="230" y="918.80" width="4" height="17.20" rx="1" fill="#ffffff" fill-opacity="0.28"/></g><rect class="track" x="246" y="928" width="134" height="7" rx="3.50" fill="#ffffff" fill-opacity="0.13"/><rect class="fill" x="246" y="928" width="57.62" height="7" rx="3.50" fill="#4e8f78"/><text x="484" y="934" font-size="19" fill="#eaf0f2" font-family="SF Pro Text, Helvetica Neue, sans-serif" text-anchor="end">43%</text></g><g class="row ok"><text x="36" y="974" font-size="20" fill="#eaf0f2" font-family="SF Pro Text, Helvetica Neue, sans-serif">vercel</text><g class="spark"><rect class="spark-bar" x="164" y="972.96" width="4" height="3.04" rx="1" fill="#ffffff" fill-opacity="0.28"/><rect class="spark-bar" x="170" y="971.44" width="4" height="4.56" rx="1" fill="#ffffff" fill-opacity="0.28"/><rect class="spark-bar" x="176" y="969.92" width="4" height="6.08" rx="1" fill="#ffffff" fill-opacity="0.28"/><rect class="spark-bar" x="182" y="968.14" width="4" height="7.86" rx="1" fill="#ffffff" fill-opacity="0.28"/><rect class="spark-bar" x="188" y="968.65" width="4" height="7.35" rx="1" fill="#ffffff" fill-opacity="0.28"/><rect class="spark-bar" x="194" y="966.37" width="4" height="9.63" rx="1" fill="#ffffff" fill-opacity="0.28"/><rect class="spark-bar" x="200" y="964.85" width="4" height="11.15" rx="1" fill="#ffffff" fill-opacity="0.28"/><rect class="spark-bar" x="206" y="963.07" width="4" height="12.93" rx="1" fill="#ffffff" fill-opacity="0.28"/><rect class="spark-bar" x="212" y="963.58" width="4" height="12.42" rx="1" fill="#ffffff" fill-opacity="0.28"/><rect class="spark-bar" x="218" y="961.30" width="4" height="14.70" rx="1" fill="#ffffff" fill-opacity="0.28"/><rect class="spark-bar" x="224" y="960.03" width="4" height="15.97" rx="1" fill="#ffffff" fill-opacity="0.28"/><rect class="spark-bar" x="230" y="958" width="4" height="18" rx="1" fill="#ffffff" fill-opacity="0.28"/></g><rect class="track" x="246" y="968" width="134" height="7" rx="3.50" fill="#ffffff" fill-opacity="0.13"/><rect class="fill" x="246" y="968" width="95.14" height="7" rx="3.50" fill="#4e8f78"/><text x="484" y="974" font-size="19" fill="#eaf0f2" font-family="SF Pro Text, Helvetica Neue, sans-serif" text-anchor="end">71%</text></g><rect class="rule" x="36" y="1010" width="448" height="1" fill="#ffffff" fill-opacity="0.12"/><text x="36" y="1038" font-size="17" fill="#8b979e" font-family="SF Pro Text, Helvetica Neue, sans-serif">renews — vercel 3d · twilio 11d · github 18d</text></g></g></svg>
